<?xml version="1.0" encoding="utf-8"?>
<svg width="299" height="234" xmlns="http://www.w3.org/2000/svg">
  <defs/>
  <path d="M112.688 98.188c15.19 6.476 27.303 16.58 39.629 27.352 1.782 1.546 3.584 3.066 5.386 4.589 3.86 3.306 7.05 6.972 10.297 10.871l2.078 2.383c5.401 6.38 9.746 12.604 10.047 21.18-3.98 12.163-14.1 20.771-25.117 26.562-7.33 3.586-15.17 5.71-23.008 7.875l-2.854.806C110.494 205.04 93.381 207.354 74 207c1-3 1-3 3.375-4.372l3.195-1.421 3.613-1.636 1.945-.866a880.364 880.364 0 0 0 10.204-4.662l2.144-.99c7.18-3.33 14.276-6.812 21.326-10.406 1.324-.673 2.65-1.341 3.98-2.004 7.986-3.987 14.89-8.263 21.218-14.643-1.506-4.113-2.672-5.951-6.375-8.375l-2.336-1.586c-2.166-1.192-2.166-1.192-4.234-.953-2.852 1.268-5.087 3.004-7.555 4.914l-1.6 1.221a785.458 785.458 0 0 0-7.72 5.99c-13.416 10.35-28.31 18.476-42.917 27a1645.287 1645.287 0 0 0-27.888 16.664c-10.08 6.153-20.21 12.206-30.479 18.039a247.69 247.69 0 0 0-3.853 2.254C6.488 233.275 4.192 234.508 0 234c1.329-2.955 2.773-5.013 5.082-7.277l1.826-1.807 1.904-1.853 1.87-1.842c1.163-1.146 2.329-2.29 3.497-3.432 2.288-2.248 4.553-4.52 6.821-6.789l6.332-6.316c6.252-6.236 12.501-12.474 18.75-18.714a19772.7 19772.7 0 0 1 11.32-11.297c3.666-3.654 7.328-7.31 10.989-10.969 1.389-1.387 2.779-2.773 4.17-4.158C82.597 149.57 82.597 149.57 92 139c1.145-1.334 2.29-2.668 3.438-4L98 132l-1.61-1.285c-6.274-5.21-10.121-9.435-11.328-17.653-.298-4.902.323-8.858 2.938-13.062 6.692-6.864 16.516-4.836 24.688-1.813zM140 5l3.098 1.504C155.092 12.927 165.566 21.774 170 35c1.125 4.807.108 8.25-2.375 12.438-2.263 3.381-2.263 3.381-4.625 4.562-7.736 1.041-13.566-.674-20-5-1.764-1.573-3.352-3.23-4.957-4.965-2.676-2.665-5.564-4.969-8.543-7.285l-1.618-1.286C122.037 28.973 116.53 26.178 109 27c-9.147 3.476-14.31 11.585-18.504 20.027C84.92 59.507 79.452 73.22 79 87h-3c-.512-3.77-1.007-7.54-1.5-11.313l-.434-3.189C71.35 51.479 73.014 30.735 85.97 13.359 99.8-3.379 121.284-4.183 140 5zM296 52h3c.542 12.073.632 21.996-5 33l-1.797 3.738C283.638 106.08 271.152 118.623 253 126c-8.799 2.193-17.135 1.705-25-3-12.127-9.395-21.928-21.58-25-37-.749-7.106.156-12.904 4-19 2.68-2.68 5.118-4.886 9-5 7.087 2.32 11.056 5.888 14.5 12.563 1.827 3.812 3.394 7.69 4.938 11.624C237.46 91.085 239.59 95.84 244 99c3.944 1.613 6.112 2.25 10.254 1.086 19.1-9.877 33.753-24.774 40.906-45.438L296 52zM230.52 14.785c4.838 4.32 7.775 10.563 9 16.906.357 8.466-3.18 15.635-8.805 21.805-6.229 5.462-13.458 6.875-21.512 6.777-7.524-.642-13.668-3.617-18.73-9.23-4.149-5.755-6.317-12.284-5.98-19.395 1.343-7.01 4.694-13.654 10.257-18.21 11.973-7.68 24.413-6.7 35.77 1.347z" style="fill: rgb(240, 56, 71);"/>
</svg>