<svg xmlns="http://www.w3.org/2000/svg" xmlns:xlink="http://www.w3.org/1999/xlink" id="Group_134" data-name="Group 134" width="600" height="611.791" viewBox="0 0 600 611.791">
  <defs fill="#f03847">
    <clipPath id="clip-path" fill="#f03847">
      <rect id="Rectangle_91" data-name="Rectangle 91" width="600" height="611.791" fill="none"/>
    </clipPath>
  </defs>
  <g id="Group_131" data-name="Group 131">
    <g id="Group_130" data-name="Group 130" clip-path="url(#clip-path)">
      <path id="Path_89" data-name="Path 89" d="M493.225,149.552h0c48.2,41.716,74.546,106.959,73.8,171.077-5.479,221.433-262.864,324.654-429.361,186.323-48.481-41.193-85.771-96.586-98.432-159.827C13.759,214.876,106.69,83.329,236.362,55.594a258.068,258.068,0,0,1,94.6-3.333,235.644,235.644,0,0,1,87.752,31.865A30.115,30.115,0,1,0,446.834,31c-182.189-86.235-395.7,14.8-439.2,211.791-32.775,154.7,41.343,309.087,197.259,356.091,145.181,45.619,306.9-34.011,366.834-171.227,46.866-102.906,33.762-225.107-26.595-320.677-.033-.033-4.741-4.872-4.777-4.905-15.03-13.586-43.81,2.559-46.376,3.966,0,0-23.374,32.629-.749,43.51" transform="translate(-0.001 0)" fill="#f03847"/>
    </g>
  </g>
  <g id="Group_133" data-name="Group 133">
    <g id="Group_132" data-name="Group 132" clip-path="url(#clip-path)">
      <path id="Path_90" data-name="Path 90" d="M99.813,146.335c-2.3-.837-24.6-9.364-30.3-31.631-4.423-17.27,4.112-31.562,7.559-37.659,25.71-45.48,68.683-15.22,68.683-15.22s45.294,23.78,15.22,68.679a46.512,46.512,0,0,1-10.227,10.819s-.548.42-1.089.808c-6.064,4.361-15.428,6.722-21.437,7.91" transform="translate(181.261 137.962)" fill="none" stroke="#f03847" stroke-linecap="round" stroke-linejoin="round" stroke-width="5"/>
      <path id="Path_91" data-name="Path 91" d="M142.121,126.807c-1.663-.607-17.808-6.78-21.934-22.9-3.206-12.5,2.975-22.848,5.472-27.267,18.612-32.922,49.72-11.016,49.72-11.016s32.794,17.219,11.02,49.72a33.769,33.769,0,0,1-7.4,7.833s-.4.307-.789.585c-4.39,3.158-11.17,4.869-15.52,5.728" transform="translate(316.715 155.279)" fill="none" stroke="#f03847" stroke-linecap="round" stroke-linejoin="round" stroke-width="4"/>
      <path id="Path_92" data-name="Path 92" d="M53.308,195.932,56.777,175c3.611-20.655,11.883-40.524,26.481-56.208,29.859-31.295,78.011-36.277,118-24.65,27.951,8.147,50.364,31.595,59.542,58.774,3.6,10.91,16.631,51.939-5.541,48.236-6.565-2.062-7.829-9.368-8.363-15.432a108.455,108.455,0,0,0-5.355-26.021c-11.612-36.332-44.695-53.734-81.582-53.244-38.053-.932-70.6,16.66-83.351,53.694-2.979,8.513-5.446,17.534-5.757,26.627a33.135,33.135,0,0,0,.727,8.71,9.38,9.38,0,0,1-6.733,11.43c-6.539,1.86-13.045-4.4-11.539-10.984" transform="translate(140.957 234.709)" fill="#f03847"/>
      <path id="Path_93" data-name="Path 93" d="M112.406,147.387l2.233-12.307c3.648-25.4,22.632-46.339,48.467-49.848a88.5,88.5,0,0,1,33.444,1.177c2.9,1.016,6.13,2.014,8.977,3.14l5.687,3.015c2.792,1.382,5.351,3.812,7.91,5.633l2.281,2.3a58,58,0,0,1,13.444,21.543c2.434,7.694,10.249,31.31-4.883,28.853-2.277-.713-3.556-2.6-4.441-4.594-1.937-5.508-1.433-12.771-4.149-19.511-4.6-14.175-16.119-25.209-30.805-28.261l-4.949-1.086c-29.888-4.4-54.911,8.158-60.459,39.526a23.024,23.024,0,0,0,.022,10.106,6.605,6.605,0,1,1-12.778.311" transform="translate(297.935 223.471)" fill="#f03847"/>
      <path id="Path_94" data-name="Path 94" d="M49.082,126.807c-1.663-.607-17.808-6.78-21.934-22.9C23.942,91.4,30.123,81.06,32.62,76.641,51.231,43.719,82.34,65.624,82.34,65.624s32.794,17.219,11.02,49.72a33.768,33.768,0,0,1-7.4,7.833s-.4.307-.789.585c-4.39,3.158-11.17,4.869-15.52,5.728" transform="translate(69.687 155.279)" fill="none" stroke="#f03847" stroke-linecap="round" stroke-linejoin="round" stroke-width="4"/>
      <path id="Path_95" data-name="Path 95" d="M19.367,147.387,21.6,135.081c3.648-25.4,22.632-46.339,48.467-49.848a88.5,88.5,0,0,1,33.444,1.177c2.9,1.016,6.13,2.014,8.977,3.14l5.687,3.015c2.792,1.382,5.351,3.812,7.91,5.633l2.281,2.3a58,58,0,0,1,13.443,21.543c2.434,7.694,10.249,31.31-4.883,28.853-2.277-.713-3.553-2.6-4.441-4.594-1.937-5.508-1.433-12.771-4.149-19.511-4.6-14.175-16.119-25.209-30.805-28.261l-4.949-1.086c-29.888-4.4-54.911,8.158-60.459,39.526a23.025,23.025,0,0,0,.022,10.106,6.605,6.605,0,1,1-12.778.311" transform="translate(50.907 223.471)" fill="#f03847"/>
    </g>
  </g>
</svg>