<svg xmlns="http://www.w3.org/2000/svg" viewBox="0 0 494.93 494.93"><defs fill="#000000"><style>.cls-1{fill:#212423;}.cls-2{fill:#212423;}.cls-2,.cls-3{stroke:#f03847;stroke-linecap:round;stroke-linejoin:round;stroke-width:13.68px;}.cls-3{fill:#ff8f96;}</style></defs><title>Grantcharity</title><g id="Layer_2"><g id="Layer_1-2"><circle class="cls-1" cx="247.46" cy="247.46" r="247.44" transform="translate(-102.5 247.46) rotate(-45)" fill="#000000"/><path class="cls-2" d="M335.6,383.19l104.47-57.6-.11.08c14.24-7.11,29.42-2.51,36.76,7.92,7.2,10.22,5.79,26.69-8,36.53-69.15,58.22-188.35,103.33-188.35,103.33a80.31,80.31,0,0,1-45.66,1.31c-25.11-6.67-64.66-22.1-92.66-31a41,41,0,0,0-26.35.53L46.21,469.33l-35-99s54.49-16.51,69.87-27.22c6.54-4.55,10.46-7.62,15.09-10.78,13.94-9.49,25.88-12.84,42.5-14.6,23.59-2.49,44.12,4.21,65.43,14.07,13.4,6.21,21.27,13,46.6,19.42,30.39,7.74,43.14,9.67,56.4,12,5.74,1,10.31,1.95,15.09,4.11a22.14,22.14,0,0,1,6.17,3.81c7.08,6.95,9.62,14.63,6,24.34-3,8.19-11.23,15-21.8,17.06a33.92,33.92,0,0,1-11.89,0s-84.54-12.05-117.54-22.27" fill="#000000"/><path class="cls-2" d="M438.21,326.62,335.9,385c.37-7.93-6.67-13.74-15.34-18.93,32.79-18,68.54-37.3,88-46.91a22.88,22.88,0,0,1,29.64,7.48" fill="#000000"/><rect class="cls-2" x="54.16" y="56.19" width="366.86" height="199.7" fill="#000000"/><ellipse class="cls-2" cx="237.59" cy="156.04" rx="49.62" ry="49.5" fill="#000000"/><rect class="cls-2" x="80.32" y="78.16" width="314.53" height="155.75" fill="#000000"/><path class="cls-2" d="M123.66,78.16A43.29,43.29,0,0,1,80.32,121.4" fill="#000000"/><path class="cls-2" d="M394.85,121.4a43.29,43.29,0,0,1-43.34-43.24" fill="#000000"/><path class="cls-2" d="M351.51,233.91a43.29,43.29,0,0,1,43.34-43.23" fill="#000000"/><path class="cls-2" d="M80.32,190.68a43.29,43.29,0,0,1,43.34,43.23" fill="#000000"/><rect class="cls-3" x="80.32" y="75.48" width="366.86" height="199.7" fill="#000000"/><rect class="cls-3" x="106.49" y="97.46" width="314.53" height="155.75" fill="#000000"/><path class="cls-3" d="M149.83,97.46a43.29,43.29,0,0,1-43.34,43.23" fill="#000000"/><path class="cls-3" d="M421,140.69a43.29,43.29,0,0,1-43.34-43.23" fill="#000000"/><path class="cls-3" d="M377.68,253.21A43.29,43.29,0,0,1,421,210" fill="#000000"/><path class="cls-3" d="M106.49,210a43.29,43.29,0,0,1,43.34,43.24" fill="#000000"/><ellipse class="cls-3" cx="263.75" cy="175.33" rx="49.62" ry="49.5" fill="#000000"/></g></g></svg>