<svg enable-background="new 0 0 441.212 441.212" height="316.227766" viewBox="0 0 441.212 441.212" width="316.227766" xmlns="http://www.w3.org/2000/svg"><path d="m368.354 322.19c1.466-20.564 17.994-39.352 46.616-53.096-1.618-1.254-3.868-1.722-6.478-.85-1.316.436-4.374 1.84-8.296 4.122l-2.854-3.248 1.332 4.152c-4.07 2.468-8.878 5.788-13.634 9.912l-3.86-3.224 2.52 4.412c-4.508 4.068-8.882 8.854-12.444 14.308l-3.546-1.63 2.79 2.794c-3.95 6.366-6.748 13.606-7.342 21.646-.572 7.76-1.554 14.288-2.782 19.866-4.904 18.844-14.388 25.93-18.792 32.336-6.698 9.742-9.44 14.904-.924 20.07 2.084-6.904 6.206-15.132 12.034-22.204 9.034-10.962 13.522-19.404 15.66-49.366m6.11.436c-2.16 30.302-6.792 40.39-17.038 52.826-5.956 7.228-9.814 15.644-11.396 21.708.284.132.576.266.882.4 10.888 4.788 20.404 7.984 27.678 9.42 7.786 1.534 11.68 1.956 13.936-.552-12.832-16.472-1.46-39.134 19.048-40.82 0 0-.438-4.48-.894-11.068l-13.736 7.016c-1.51.77-3.352.172-4.124-1.336-.77-1.508-.17-3.354 1.334-4.122l16.108-8.224c-.09-1.618-.176-3.296-.25-5.014l-10.84 5.534c-1.506.768-3.352.17-4.124-1.336-.766-1.508-.17-3.352 1.338-4.122l13.384-6.832c-.048-1.694-.08-3.4-.096-5.094l-8.272 4.222c-1.508.77-3.352.172-4.122-1.334-.77-1.508-.17-3.354 1.336-4.122l11.09-5.664c.016-.764.036-1.522.06-2.268.032-1.012.106-2.01.19-3.002l-6.326 3.23c-1.506.77-3.35.172-4.122-1.336-.768-1.506-.17-3.352 1.338-4.122l10.182-5.198c2.868-14.256 9.604-26.32 10.56-35.542.044-.426.048-.844.032-1.256-26.552 12.746-41.85 29.732-43.156 48.008m-43.638 70.006-44.246 44.248 4.332 4.332 43.994-43.996c-1.786-1.408-3.14-2.93-4.08-4.584m28.874-84.334-128.58 128.582 4.334 4.332 121.764-121.764c.416-3.896 1.262-7.62 2.482-11.15m32.36-145.45c-.316-12.206-2.504-24.372-6.61-36.012l-30.65 30.646c2.69 16.266.732 33.146-5.872 48.5zm-.066 8.732-159.11 159.112c-33.736 33.736-88.628 33.734-122.364 0-10.328-10.328-17.48-22.644-21.484-35.724l-29.276 29.278c5.616 12.216 13.444 23.66 23.494 33.71 45.57 45.57 119.718 45.57 165.288 0l109.412-109.414.02-.02c21.33-21.34 32.67-48.942 34.02-76.942m-336.232 142.796 30.648-30.648c-2.69-16.264-.732-33.144 5.874-48.496l-43.134 43.132c.316 12.206 2.504 24.372 6.612 36.012m38.24-24.372c3.49 13.326 10.428 25.93 20.852 36.354 31.346 31.346 82.35 31.346 113.696 0l97.808-97.806c17.908-17.908 25.566-42.23 23.012-65.64l-136.118 136.12c-19.594 19.594-51.478 19.592-71.07 0-11.72-11.72-16.424-27.83-14.126-43.082zm198.096-83.686.018-.016c15.752-15.774 15.748-41.422-.018-57.188-15.772-15.772-41.436-15.772-57.206 0l-85.778 85.778c-15.772 15.772-15.772 41.434 0 57.206 15.77 15.772 41.432 15.772 57.206 0l85.778-85.778zm21.056-21.056 34.056-34.054c-3.492-13.328-10.428-25.93-20.852-36.354-31.348-31.348-82.35-31.346-113.698 0l-97.806 97.806c-17.908 17.908-25.568 42.23-23.014 65.64l136.118-136.12c19.596-19.594 51.478-19.594 71.074 0 11.716 11.718 16.42 27.83 14.122 43.082m-263.938 84.37 159.112-159.11c33.734-33.738 88.626-33.738 122.362-.002 10.328 10.328 17.48 22.644 21.484 35.724l29.276-29.278c-5.618-12.218-13.444-23.66-23.496-33.71-45.568-45.57-119.716-45.57-165.286 0l-109.414 109.414c-21.342 21.344-32.688 48.954-34.038 76.962m391.996-147.268-39.354 39.354c.58 17.75-2.536 35.596-9.354 52.276l41.774-41.774 6.934 6.934-185.738 185.736c-49.392 49.392-129.76 49.392-179.152-.002-9.998-9.996-17.968-21.264-23.92-33.284l-45.468 45.47-6.934-6.934 48.144-48.146c-4.372-11.078-7.134-22.652-8.27-34.356l-35.542 35.542-4.332-4.332 39.356-39.354c-.582-17.75 2.532-35.598 9.35-52.278l-41.772 41.776-6.934-6.934 185.736-185.736c49.392-49.392 129.76-49.392 179.152 0 9.996 9.998 17.97 21.264 23.92 33.286l45.47-45.47 6.934 6.934-48.146 48.144c4.376 11.08 7.134 22.652 8.27 34.358l35.542-35.544zm-368.352-3.344c-1.47 20.566-17.996 39.354-46.618 53.098 1.618 1.254 3.868 1.72 6.476.852 1.318-.44 4.376-1.842 8.298-4.124l2.852 3.248-1.33-4.152c4.07-2.468 8.876-5.788 13.632-9.912l3.862 3.224-2.522-4.414c4.512-4.068 8.884-8.852 12.444-14.306l3.546 1.628-2.788-2.792c3.948-6.366 6.748-13.606 7.34-21.646.572-7.762 1.556-14.288 2.784-19.866 4.902-18.844 14.388-25.928 18.79-32.336 6.698-9.742 9.44-14.904.924-20.07-2.084 6.904-6.206 15.132-12.034 22.204-9.032 10.962-13.52 19.404-15.656 49.364m-6.114-.434c2.162-30.302 6.792-40.39 17.04-52.826 5.956-7.228 9.814-15.642 11.398-21.708-.288-.132-.578-.266-.886-.4-10.888-4.788-20.402-7.984-27.678-9.42-7.786-1.536-11.678-1.956-13.932.552 12.828 16.472 1.456 39.134-19.052 40.82 0 0 .44 4.48.896 11.068l13.738-7.016c1.506-.77 3.35-.172 4.122 1.336.77 1.508.17 3.354-1.338 4.122l-16.104 8.224c.088 1.618.172 3.296.25 5.014l10.838-5.534c1.508-.768 3.352-.172 4.124 1.336.768 1.506.17 3.352-1.336 4.122l-13.384 6.834c.046 1.694.08 3.396.094 5.092l8.274-4.222c1.506-.77 3.35-.172 4.122 1.334.768 1.508.172 3.354-1.336 4.124l-11.092 5.662c-.014.764-.034 1.522-.058 2.268-.034 1.012-.108 2.01-.194 3.002l6.328-3.23c1.506-.77 3.352-.172 4.122 1.336.768 1.506.17 3.352-1.334 4.122l-10.182 5.198c-2.87 14.256-9.606 26.32-10.564 35.542-.044.426-.046.844-.032 1.256 26.552-12.746 41.852-29.732 43.156-48.008m43.638-70.008 44.248-44.244-4.332-4.334-43.994 43.994c1.784 1.41 3.14 2.932 4.078 4.584m-26.392 73.186 121.766-121.764 4.332 4.334-128.58 128.58c1.22-3.53 2.068-7.254 2.482-11.15" fill="#f03847"/></svg>